HIERARCHY
ROOT Hips
{
 OFFSET 0.000000 0.000000 0.000000
 CHANNELS 6 Xposition Yposition Zposition Yrotation Xrotation Zrotation
 JOINT Chest
 {
  OFFSET 0.000000 9.585900 0.002600
  CHANNELS 3 Yrotation Xrotation Zrotation
  JOINT Chest2
  {
   OFFSET 0.000000 9.601200 -0.005300
   CHANNELS 3 Yrotation Xrotation Zrotation
   JOINT Chest3
   {
    OFFSET 0.000000 9.561800 0.000000
    CHANNELS 3 Yrotation Xrotation Zrotation
    JOINT Chest4
    {
     OFFSET 0.000000 9.552100 0.000000
     CHANNELS 3 Yrotation Xrotation Zrotation
     JOINT Neck
     {
      OFFSET 0.000000 14.453000 0.000000
      CHANNELS 3 Yrotation Xrotation Zrotation
      JOINT Head
      {
       OFFSET 0.000000 8.936500 -0.011300
       CHANNELS 3 Yrotation Xrotation Zrotation
       End Site
       {
        OFFSET 0.000000 17.073600 -0.006000
       }
      }
     }
     JOINT RightCollar
     {
      OFFSET -2.921100 9.558500 0.000000
      CHANNELS 3 Yrotation Xrotation Zrotation
      JOINT RightShoulder
      {
       OFFSET -13.519700 0.000000 0.000000
       CHANNELS 3 Yrotation Xrotation Zrotation
       JOINT RightElbow
       {
        OFFSET 0.000000 -29.696600 0.000000
        CHANNELS 3 Yrotation Xrotation Zrotation
        JOINT RightWrist
        {
         OFFSET 0.000000 -24.004700 0.000000
         CHANNELS 3 Yrotation Xrotation Zrotation
         End Site
         {
          OFFSET 0.000000 -17.728500 0.000000
         }
        }
       }
      }
     }
     JOINT LeftCollar
     {
      OFFSET 2.921100 9.558500 0.000000
      CHANNELS 3 Yrotation Xrotation Zrotation
      JOINT LeftShoulder
      {
       OFFSET 13.519700 0.000000 0.000000
       CHANNELS 3 Yrotation Xrotation Zrotation
       JOINT LeftElbow
       {
        OFFSET 0.000000 -29.696600 0.000000
        CHANNELS 3 Yrotation Xrotation Zrotation
        JOINT LeftWrist
        {
         OFFSET 0.000000 -24.004700 0.000000
         CHANNELS 3 Yrotation Xrotation Zrotation
         End Site
         {
          OFFSET 0.000000 -17.728500 0.000000
         }
        }
       }
      }
     }
    }
   }
  }
 }
 JOINT RightHip
 {
  OFFSET -7.771700 -0.012900 -0.001300
  CHANNELS 3 Yrotation Xrotation Zrotation
  JOINT RightKnee
  {
   OFFSET 0.000000 -40.869800 0.001200
   CHANNELS 3 Yrotation Xrotation Zrotation
   JOINT RightAnkle
   {
    OFFSET 0.000000 -39.717900 0.002100
    CHANNELS 3 Yrotation Xrotation Zrotation
    JOINT RightToe
    {
     OFFSET 0.000000 -4.965400 11.033500
     CHANNELS 3 Yrotation Xrotation Zrotation
     End Site
     {
      OFFSET 0.000000 -1.423100 5.872300
     }
    }
   }
  }
 }
 JOINT LeftHip
 {
  OFFSET 7.771700 -0.012900 -0.001300
  CHANNELS 3 Yrotation Xrotation Zrotation
  JOINT LeftKnee
  {
   OFFSET 0.000000 -40.869800 0.001200
   CHANNELS 3 Yrotation Xrotation Zrotation
   JOINT LeftAnkle
   {
    OFFSET 0.000000 -39.717900 0.002100
    CHANNELS 3 Yrotation Xrotation Zrotation
    JOINT LeftToe
    {
     OFFSET 0.000000 -4.965400 11.033500
     CHANNELS 3 Yrotation Xrotation Zrotation
     End Site
     {
      OFFSET 0.000000 -1.423100 5.872300
     }
    }
   }
  }
 }
}
MOTION
Frames: 11
Frame Time: 0.008333
-109.742724 57.902153 98.526485 175.709721 -33.440316 -2.327491 3.155907 20.126410 2.396019 0.341205 2.548847 0.249812 0.590347 4.121575 0.392299 2.589691 17.308529 2.081952 -4.357714 21.539254 0.927862 -8.148740 4.373037 2.892222 7.146998 -4.063348 -3.280839 25.839761 -53.379827 -34.526434 -107.282027 -43.092059 118.752068 -14.914107 4.197389 10.821098 -6.954844 -4.464132 -3.188924 -2.151605 -12.631657 -1.848022 27.902173 -48.689889 -64.330556 8.311922 -4.424297 21.107059 9.686450 -41.857851 -4.138246 -10.354418 67.173530 -9.365098 6.657158 23.619406 5.739071 -0.392830 -16.108723 3.075635 -9.109958 -39.326758 4.529119 26.452140 64.260148 24.518508 -15.120971 8.151322 -3.326798 0.010213 0.101095 -0.008668
-109.764414 57.903399 98.529658 175.732628 -33.421008 -2.327166 3.111475 20.135354 2.387960 0.347170 2.543944 0.246377 0.551498 4.191251 0.427213 2.567378 17.287330 2.071171 -4.317425 21.492094 0.906379 -8.091958 4.333301 2.954766 7.212294 -4.100950 -3.323115 26.006302 -53.488153 -34.463682 -108.778214 -43.360614 120.362227 -15.048560 4.182977 9.802664 -6.884219 -4.511364 -3.130986 -2.106195 -12.457021 -1.852344 27.905348 -48.328294 -64.317372 8.412552 -4.422474 21.328185 9.673670 -41.865811 -4.148822 -10.377720 67.157815 -9.423561 6.671415 23.616663 5.765163 -0.392737 -16.103512 3.082290 -9.099008 -39.348743 4.510276 26.483657 64.241360 24.505985 -15.126568 8.187471 -3.257501 -0.003709 0.101074 -0.015159
-109.783486 57.906107 98.531193 175.734887 -33.413271 -2.333323 3.102828 20.136267 2.394528 0.337386 2.555562 0.252243 0.513013 4.222567 0.452408 2.538239 17.290440 2.075761 -4.290997 21.463427 0.929122 -8.047781 4.249069 2.935912 7.285297 -4.125765 -3.373429 26.243153 -53.567988 -34.413191 -110.368022 -44.121833 121.817911 -15.212987 4.137191 8.447666 -6.809159 -4.559113 -3.101487 -2.074325 -12.291387 -1.821614 27.871104 -47.999219 -64.263382 8.516932 -4.433363 21.553050 9.660846 -41.865302 -4.132416 -10.393133 67.138979 -9.474631 6.686404 23.619681 5.794253 -0.393450 -16.101696 3.086750 -9.045540 -39.359038 4.489457 26.447517 64.238989 24.473081 -15.134286 8.212758 -3.203292 -0.004473 0.090182 -0.028726
-109.800323 57.910053 98.531003 175.742505 -33.416391 -2.357375 3.072080 20.168090 2.426111 0.331460 2.560264 0.255113 0.496245 4.217014 0.456148 2.540536 17.287386 2.064772 -4.305956 21.429147 0.973738 -8.017894 4.138296 2.893314 7.315489 -4.117015 -3.365101 26.532140 -53.636156 -34.397592 -111.771995 -45.135513 122.937227 -15.280715 3.974690 7.137445 -6.770183 -4.576985 -3.042842 -2.059778 -12.144285 -1.768543 27.805852 -47.721593 -64.183893 8.622660 -4.452924 21.776899 9.620302 -41.842695 -4.081071 -10.414759 67.103976 -9.537840 6.694916 23.608726 5.817685 -0.387740 -16.084696 3.093116 -9.017166 -39.355211 4.487033 26.412235 64.239785 24.444995 -15.138181 8.226197 -3.163570 -0.000002 0.086607 -0.036759
-109.819098 57.912500 98.532297 175.734813 -33.405469 -2.363999 3.038803 20.177873 2.443144 0.326039 2.562957 0.258122 0.499559 4.209226 0.451132 2.534300 17.291601 2.064816 -4.333895 21.357093 0.983604 -8.016260 3.999026 2.849709 7.282384 -4.091801 -3.298724 26.897162 -53.697536 -34.451953 -112.654898 -45.927291 123.606353 -15.276586 3.700736 6.121294 -6.733883 -4.590719 -2.991188 -2.054495 -12.016215 -1.687058 27.721160 -47.501205 -64.095799 8.723214 -4.469886 21.990692 9.622412 -41.843731 -4.064577 -10.412328 67.078052 -9.568111 6.709959 23.618741 5.856897 -0.398342 -16.084764 3.096179 -9.009022 -39.365288 4.495464 26.398326 64.240773 24.415243 -15.137901 8.237677 -3.133925 0.006786 0.089621 -0.034787
-109.837185 57.915040 98.532785 175.736058 -33.398361 -2.380610 2.975635 20.188610 2.464367 0.341742 2.561357 0.250954 0.531386 4.199278 0.434712 2.406956 17.305627 2.136516 -4.317608 21.255960 0.889917 -8.049605 3.838228 2.792111 7.354441 -4.071604 -3.367815 27.036500 -53.793854 -34.351923 -112.886133 -46.196530 123.868995 -15.289039 3.444418 5.366819 -6.606564 -4.613782 -3.028598 -2.041449 -11.900496 -1.578945 27.634397 -47.336271 -64.023186 8.807929 -4.475632 22.178145 9.623994 -41.843766 -4.060922 -10.403623 67.066111 -9.556818 6.701816 23.621588 5.857948 -0.389462 -16.083236 3.102997 -8.983479 -39.372414 4.486435 26.367900 64.240064 24.395835 -15.134368 8.247494 -3.104776 0.005471 0.095159 -0.033592
-109.856172 57.917073 98.532950 175.728995 -33.391948 -2.387455 2.962062 20.184964 2.477167 0.314781 2.563186 0.263354 0.522317 4.198524 0.439002 2.368403 17.299507 2.153734 -4.351674 21.168611 0.827745 -8.125429 3.677845 2.733179 7.349715 -4.035069 -3.388327 27.023297 -53.943806 -34.167103 -112.556163 -45.969185 123.852216 -15.305852 3.332900 4.758696 -6.548285 -4.616087 -3.026083 -2.011054 -11.790455 -1.452370 27.552884 -47.217600 -63.978057 8.864620 -4.468310 22.323017 9.638259 -41.844853 -4.062299 -10.381133 67.054957 -9.543065 6.700295 23.628858 5.878024 -0.386611 -16.085662 3.105159 -8.952099 -39.381729 4.468955 26.355059 64.239730 24.394257 -15.137983 8.262239 -3.068183 -0.004120 0.107065 -0.028125
-109.875905 57.918329 98.533189 175.722580 -33.384262 -2.389061 2.931757 20.182088 2.484245 0.310307 2.561699 0.265593 0.498982 4.192682 0.450255 2.391510 17.301178 2.135191 -4.429198 21.083977 0.804183 -8.243654 3.532107 2.677891 7.305255 -4.011416 -3.369939 26.885444 -54.141400 -33.914168 -111.902806 -45.470394 123.694957 -15.266900 3.353058 4.207133 -6.554439 -4.620072 -2.972995 -1.974019 -11.681682 -1.314611 27.482466 -47.137134 -63.960794 8.894210 -4.450833 22.414336 9.646081 -41.849523 -4.063993 -10.374161 67.045384 -9.551250 6.702642 23.639764 5.896223 -0.380713 -16.091777 3.107420 -8.904771 -39.407180 4.417370 26.372630 64.245401 24.447260 -15.132341 8.302729 -3.010734 -0.006960 0.074043 -0.067279
-109.892308 57.919472 98.533104 175.704067 -33.382593 -2.400513 2.926951 20.177693 2.506146 0.298285 2.557191 0.270567 0.519822 4.196412 0.442463 2.383833 17.299183 2.141077 -4.517303 21.006593 0.770818 -8.396752 3.404785 2.620641 7.302768 -3.997078 -3.375191 26.730179 -54.354852 -33.666945 -111.214135 -44.943053 123.516512 -15.183342 3.403873 3.669629 -6.568295 -4.629358 -2.917423 -1.943123 -11.568654 -1.168437 27.433008 -47.091264 -63.977897 8.904311 -4.424307 22.452097 9.674922 -41.845620 -4.064396 -10.392187 67.024429 -9.559403 6.722856 23.657069 5.921491 -0.389509 -16.098107 3.106273 -8.901733 -39.411151 4.435351 26.368482 64.253137 24.440841 -15.155260 8.320598 -2.978170 0.021263 0.061268 -0.086259
-109.906049 57.920697 98.532382 175.694019 -33.389116 -2.426639 2.909636 20.167673 2.532849 0.323413 2.570485 0.267942 0.509014 4.190945 0.449517 2.379081 17.294017 2.156040 -4.617620 20.943297 0.714990 -8.572224 3.292197 2.553259 7.221001 -3.971047 -3.292176 26.971238 -54.513871 -33.719744 -110.735525 -44.546141 123.421562 -15.144451 3.385114 3.120338 -6.582291 -4.639570 -2.878328 -1.923026 -11.452402 -1.015200 27.405908 -47.072979 -64.031660 8.900793 -4.392298 22.448716 9.703112 -41.830576 -4.070034 -10.384889 67.009930 -9.512801 6.723595 23.659613 5.925375 -0.392203 -16.094712 3.105200 -8.902710 -39.411483 4.446144 26.394465 64.257264 24.482561 -15.167266 8.340473 -2.957938 -0.006958 0.074384 -0.068994
-109.921211 57.920517 98.532798 175.688937 -33.389311 -2.439549 2.898201 20.155098 2.549606 0.325617 2.570981 0.262853 0.508685 4.189643 0.453314 2.379891 17.290438 2.172372 -4.731251 20.889180 0.663343 -8.760014 3.186606 2.468262 7.202588 -3.966618 -3.232458 27.316383 -54.627188 -33.888116 -110.589922 -44.347417 123.468487 -15.194511 3.268005 2.556790 -6.585408 -4.637161 -2.872563 -1.938412 -11.353766 -0.824049 27.391806 -47.074447 -64.108501 8.889670 -4.358333 22.416415 9.704897 -41.829422 -4.063064 -10.409060 66.998920 -9.536561 6.738013 23.671590 5.937241 -0.390092 -16.100424 3.106324 -8.904428 -39.422655 4.441109 26.410435 64.270540 24.509529 -15.155041 8.351416 -2.946707 -0.014870 0.074960 -0.060823
